<svg width="30" height="30" viewBox="0 0 30 30" fill="none" xmlns="http://www.w3.org/2000/svg">
<path d="M27.09 4.85571H2.90998C1.89457 4.85571 1.07141 5.67887 1.07141 6.69428V23.3057C1.07141 24.3211 1.89457 25.1443 2.90998 25.1443H27.09C28.1054 25.1443 28.9286 24.3211 28.9286 23.3057V6.69428C28.9286 5.67887 28.1054 4.85571 27.09 4.85571Z" stroke="white" stroke-linecap="round" stroke-linejoin="round"/>
<path d="M20.0558 12.5986H24.3133" stroke="white" stroke-linecap="round" stroke-linejoin="round"/>
<path d="M20.0558 16.8182H24.3133" stroke="white" stroke-linecap="round" stroke-linejoin="round"/>
<path d="M7.51538 13.3021C7.51538 15.244 9.08954 16.8181 11.0314 16.8181C11.5223 16.8181 11.9897 16.7175 12.4141 16.5358C13.6685 15.9987 14.5474 14.7531 14.5474 13.3021C14.5474 11.3603 12.9732 9.78613 11.0314 9.78613C9.08954 9.78613 7.51538 11.3603 7.51538 13.3021Z" stroke="white" stroke-linecap="round" stroke-linejoin="round"/>
<path d="M5.68671 20.2999C6.24539 19.2372 7.0306 18.359 7.96683 17.7496C8.90307 17.1401 9.95886 16.8201 11.0327 16.8201C12.1065 16.8201 13.1623 17.1401 14.0986 17.7496C15.0348 18.359 15.82 19.2372 16.3787 20.2999" stroke="white" stroke-linecap="round" stroke-linejoin="round"/>
</svg>
