<svg width="30" height="30" viewBox="0 0 30 30" fill="none" xmlns="http://www.w3.org/2000/svg">
<g clip-path="url(#clip0_210_31349)">
<path d="M20.3571 22.5V26.7857C20.3571 27.354 20.1314 27.8991 19.7295 28.3009C19.3276 28.7027 18.7826 28.9286 18.2143 28.9286H3.21427C2.64594 28.9286 2.1009 28.7027 1.69904 28.3009C1.29718 27.8991 1.07141 27.354 1.07141 26.7857V3.21427C1.07141 2.64594 1.29718 2.1009 1.69904 1.69904C2.1009 1.29718 2.64594 1.07141 3.21427 1.07141H18.2143C18.7826 1.07141 19.3276 1.29718 19.7295 1.69904C20.1314 2.1009 20.3571 2.64594 20.3571 3.21427V7.49998" stroke="white" stroke-linecap="round" stroke-linejoin="round"/>
<path d="M28.9286 15H11.7857" stroke="white" stroke-linecap="round" stroke-linejoin="round"/>
<path d="M16.0714 10.7142L11.7857 14.9999L16.0714 19.2857" stroke="white" stroke-linecap="round" stroke-linejoin="round"/>
</g>
<defs>
<clipPath id="clip0_210_31349">
<rect width="30" height="30" fill="white"/>
</clipPath>
</defs>
</svg>
