<svg width="18" height="18" viewBox="0 0 18 18" fill="none" xmlns="http://www.w3.org/2000/svg">
<g clip-path="url(#clip0_1_705)">
<path d="M16.9458 17.3571C16.4059 15.6739 15.3456 14.2056 13.9177 13.1639C12.4896 12.1222 10.7676 11.5609 9.00004 11.5609C7.23243 11.5609 5.51048 12.1222 4.08245 13.1639C2.65443 14.2056 1.59409 15.6739 1.05432 17.3571H16.9458Z" stroke="#00766B" stroke-linecap="round" stroke-linejoin="round"/>
<path d="M8.99994 11.5714C12.005 11.5714 14.4412 9.1353 14.4412 6.1302C14.4412 3.1251 12.005 0.688995 8.99994 0.688995C5.99484 0.688995 3.55872 3.1251 3.55872 6.1302C3.55872 9.1353 5.99484 11.5714 8.99994 11.5714Z" stroke="#00766B" stroke-linecap="round" stroke-linejoin="round"/>
<path d="M10.7767 8.2355C10.7767 8.2355 10.3252 9.12386 9 9.12386C7.67475 9.12386 7.22327 8.2355 7.22327 8.2355" stroke="#00766B" stroke-linecap="round" stroke-linejoin="round"/>
<path d="M14.3426 5.09424C14.3304 5.09432 14.3183 5.09436 14.3062 5.09436C12.7246 5.09436 11.3046 4.4024 10.3324 3.30471C9.36027 4.40242 7.94027 5.09439 6.35865 5.09439C5.44021 5.09439 4.57627 4.86105 3.82288 4.45042C4.53071 2.26739 6.58095 0.688995 8.99986 0.688995C11.6507 0.688995 13.8588 2.58462 14.3426 5.09424Z" stroke="#00766B" stroke-linecap="round" stroke-linejoin="round"/>
</g>
<defs>
<clipPath id="clip0_1_705">
<rect width="18" height="18" fill="white"/>
</clipPath>
</defs>
</svg>
